<?xml version="1.0" encoding="UTF-8"?>
<svg version="1.1" xmlns="http://www.w3.org/2000/svg" width="512" height="512">
<path d="M0 0 C0.99501437 -0.00453111 1.99002875 -0.00906223 3.01519507 -0.01373065 C6.3530065 -0.02640204 9.69065533 -0.02475249 13.02848816 -0.02310181 C15.42015798 -0.02908534 17.81182587 -0.03589048 20.20349121 -0.04345703 C26.02819089 -0.05930466 31.85284115 -0.0655662 37.67756132 -0.06668179 C42.41326824 -0.06763269 47.14896183 -0.07174511 51.88466454 -0.07808304 C65.31696219 -0.09569347 78.74922791 -0.10492226 92.18153719 -0.10342209 C92.90543531 -0.10334218 93.62933342 -0.10326227 94.37516785 -0.10317993 C95.46234387 -0.10305729 95.46234387 -0.10305729 96.57148304 -0.10293217 C108.31549435 -0.10211941 120.05937736 -0.12125505 131.80335156 -0.14945666 C143.86757002 -0.17819824 155.93172593 -0.19199625 167.99597949 -0.19026911 C174.76689395 -0.18960563 181.53767392 -0.19507943 188.30855751 -0.21662521 C194.67713973 -0.23598051 201.04543788 -0.2361503 207.41403008 -0.22159195 C209.75049885 -0.2194994 212.08698529 -0.22423117 214.42342377 -0.23631287 C217.61521768 -0.25174762 220.80602997 -0.24246802 223.99780273 -0.22705078 C224.92048079 -0.23733791 225.84315884 -0.24762503 226.79379684 -0.25822389 C233.67429512 -0.18487607 238.9534026 1.47499218 244.21281433 6.01351929 C244.65882996 6.57168335 245.10484558 7.12984741 245.56437683 7.70492554 C246.25660339 8.53830444 246.25660339 8.53830444 246.96281433 9.38851929 C249.74543344 13.65106639 250.48341808 17.61775541 250.78703308 22.65023804 C250.905224 24.51095947 250.905224 24.51095947 251.02580261 26.40927124 C251.1004071 27.72371216 251.1750116 29.03815308 251.25187683 30.39242554 C251.3344526 31.75598708 251.41762692 33.1195125 251.50138855 34.48300171 C251.66546101 37.18120944 251.82423792 39.87964326 251.97795105 42.57846069 C252.15555212 45.67725065 252.34331153 48.77508437 252.53703308 51.87289429 C252.7673753 55.65599833 252.95598945 59.43878395 253.10588074 63.22592163 C253.18513062 65.16360445 253.28624677 67.10035668 253.38859558 69.03695679 C253.60153999 76.28440964 253.12096358 83.17016413 252.08390808 90.35336304 C251.98231888 91.08012238 251.88072968 91.80688171 251.77606201 92.55566406 C251.25828621 96.24842866 250.70445572 99.92869111 250.08512878 103.60580444 C248.67570538 112.48872875 248.67570538 112.48872875 252.02531433 120.57992554 C253.07669008 121.81192613 254.13084315 123.04156956 255.18937683 124.26742554 C256.12663011 127.07918536 256.4042031 129.14921734 256.57829285 132.07992554 C256.66827293 133.54921509 256.66827293 133.54921509 256.7600708 135.04818726 C256.82053085 136.11053589 256.88099091 137.17288452 256.94328308 138.26742554 C257.00845627 139.37231323 257.07362946 140.47720093 257.14077759 141.61557007 C257.2781175 143.96587257 257.41331463 146.3163011 257.54655457 148.6668396 C257.74793021 152.1982166 257.9593701 155.72888598 258.17179871 159.25961304 C259.29866266 178.44444225 259.95011259 196.66450571 256.68937683 215.64242554 C256.3286358 217.81655602 255.9722221 219.99131381 255.61943054 222.16674805 C255.30355593 224.10312822 254.97634804 226.03764996 254.64836121 227.97201538 C253.71014619 233.29094203 253.71014619 233.29094203 255.43156433 238.11117554 C255.97039246 238.65773804 256.50922058 239.20430054 257.06437683 239.76742554 C264.25540078 247.61833168 263.43284617 258.13726804 263.94328308 268.25180054 C264.00845627 269.5031781 264.07362946 270.75455566 264.14077759 272.04385376 C264.27758983 274.68634557 264.41314052 277.32886526 264.54655457 279.9715271 C264.68249648 282.66178015 264.82113911 285.35186953 264.96257019 288.0418396 C265.16758452 291.94500614 265.36858238 295.84835886 265.56828308 299.75180054 C265.63076736 300.94174622 265.69325165 302.13169189 265.75762939 303.35769653 C265.81446396 304.49547546 265.87129852 305.63325439 265.92985535 306.80551147 C265.98013382 307.79033508 266.03041229 308.77515869 266.08221436 309.78982544 C266.3467467 318.37433887 266.1064345 326.3553583 264.52458191 334.81259155 C264.25865234 336.29783325 264.25865234 336.29783325 263.98735046 337.81307983 C263.40459406 341.05108104 262.80752228 344.28622755 262.20890808 347.52133179 C261.79448971 349.79086417 261.38049015 352.06047307 260.96688843 354.33015442 C260.10008 359.07279289 259.2256909 363.81395898 258.34635925 368.55429077 C257.22422351 374.60894053 256.12499127 380.66749504 255.0319109 386.72744846 C254.18377736 391.41104606 253.32150156 396.09195832 252.45522118 400.77223015 C252.04420061 403.00431762 251.63796545 405.2372921 251.23674965 407.4711628 C250.67284108 410.60090186 250.0894077 413.72641378 249.50114441 416.85165405 C249.34145676 417.76154587 249.1817691 418.67143768 249.01724243 419.60890198 C247.21026556 428.97752648 244.08894828 436.69242803 236.05656433 442.20883179 C233.03472181 443.92205213 230.53080263 444.39315844 227.12564564 444.40164661 C225.88051408 444.40833338 225.88051408 444.40833338 224.61022836 444.41515523 C223.69837815 444.41497087 222.78652794 444.41478651 221.8470459 444.41459656 C220.87824169 444.41827325 219.90943748 444.42194993 218.91127557 444.42573804 C215.65021092 444.43679103 212.38917812 444.44062146 209.12809753 444.44442749 C206.79583637 444.45069091 204.4635762 444.45733761 202.13131714 444.46434021 C195.78405609 444.48176102 189.43680259 444.49230492 183.08952355 444.50054574 C179.12532625 444.50569358 175.1611313 444.51176941 171.19693565 444.51805687 C160.21910678 444.53492775 149.24127999 444.54956254 138.26344013 444.55680561 C135.4149405 444.55871547 132.56644088 444.56063581 129.71794128 444.56259155 C129.00996996 444.56307529 128.30199863 444.56355903 127.57257362 444.56405743 C116.10650095 444.57235594 104.64053267 444.59768991 93.17450557 444.63017223 C81.39964065 444.66325719 69.62482875 444.68125568 57.84991711 444.68444985 C51.23992546 444.68680223 44.63009879 444.69578738 38.02015114 444.72091103 C31.80098742 444.74416709 25.58209759 444.74843469 19.36290169 444.73814964 C17.08125651 444.73765358 14.79959796 444.7439947 12.51799393 444.75770569 C9.40054264 444.77539013 6.28407792 444.76833475 3.16662598 444.75517273 C1.81558107 444.7716266 1.81558107 444.7716266 0.43724233 444.78841287 C-7.0264198 444.71245168 -12.31105673 442.76699198 -17.62312317 437.45492554 C-22.01897591 431.04954011 -23.53037924 424.72280515 -24.89533997 417.19223022 C-25.08109589 416.20425949 -25.26685181 415.21628876 -25.45823669 414.19837952 C-26.06715219 410.94685057 -26.66395371 407.69324018 -27.25984192 404.43930054 C-27.68110138 402.16629053 -28.10280527 399.89336286 -28.52493286 397.62051392 C-29.40696914 392.86041705 -30.28287625 388.09924241 -31.15461731 383.33724976 C-32.26870604 377.25474362 -33.39904414 371.175391 -34.53418255 365.09678268 C-35.40853012 360.40356815 -36.273592 355.70867759 -37.13598061 351.01325226 C-37.54883873 348.77217066 -37.96466659 346.53163393 -38.38359642 344.29167938 C-38.96993573 341.14951269 -39.54354439 338.00526658 -40.11408997 334.86019897 C-40.37351631 333.4913279 -40.37351631 333.4913279 -40.63818359 332.09480286 C-42.47455856 321.8031245 -41.806438 311.55356788 -41.24789429 301.16098022 C-41.18734657 299.9914468 -41.12679885 298.82191338 -41.06441635 297.61693954 C-40.89739845 294.40206569 -40.72783225 291.18733848 -40.55713737 287.97265816 C-40.37303289 284.4935079 -40.19226627 281.01418392 -40.01106262 277.53488159 C-39.65619786 270.73129836 -39.29826009 263.92788018 -38.93923158 257.12451553 C-38.52071888 249.19210207 -38.10511736 241.25953686 -37.68958592 233.32696676 C-36.94776534 219.16766905 -36.20307438 205.00852373 -35.4568634 190.84945679 C-34.73372797 177.12822951 -34.01298672 163.40687908 -33.29475403 149.68539429 C-32.51156415 134.72299227 -31.72703764 119.76066146 -30.94020599 104.79845047 C-30.8562135 103.20123549 -30.77222167 101.60402047 -30.68823051 100.00680542 C-30.6262491 98.82819116 -30.6262491 98.82819116 -30.56301554 97.62576652 C-30.27271624 92.10397294 -29.98333515 86.58213168 -29.69429207 81.06027222 C-29.34173062 74.32567103 -28.98761955 67.59115335 -28.63157768 60.85673523 C-28.45015592 57.42454839 -28.26938684 53.99233069 -28.09045982 50.56001282 C-27.89570632 46.83119271 -27.69834442 43.10251931 -27.50033569 39.37387085 C-27.44488431 38.30060421 -27.38943293 37.22733757 -27.3323012 36.1215477 C-27.06674914 31.1701963 -26.76073464 26.22338784 -26.36907864 21.28030396 C-26.26747406 19.98780794 -26.26747406 19.98780794 -26.16381687 18.6692009 C-25.18554525 12.01679268 -21.74404816 7.692405 -16.68952942 3.49398804 C-11.24821311 -0.05813945 -6.30336594 -0.02100649 0 0 Z " fill="#000000" transform="translate(143.8106231689453,33.732574462890625)"/>
<path d="M0 0 C76.56 0 153.12 0 232 0 C235 44 235 44 235 54 C190.12 54 145.24 54 99 54 C99 72.48 99 90.96 99 110 C144.87 110 190.74 110 238 110 C238.66 123.53 239.32 137.06 240 151 C240.33 152.98 240.66 154.96 241 157 C241 161.29 241 165.58 241 170 C193.81 170 146.62 170 98 170 C98 190.46 98 210.92 98 232 C146.18 232 194.36 232 244 232 C247 277 247 277 247 298 C160.21 298 73.42 298 -16 298 C-14.02 262.36 -14.02 262.36 -12 226 C-10.87078016 204.94694691 -9.74457 183.89388518 -8.63680267 162.83971405 C-8.33612498 157.12838118 -8.03301966 151.4171785 -7.72956878 145.7059924 C-7.42306299 139.93524465 -7.11823592 134.1644097 -6.81463784 128.39350826 C-6.63734627 125.02397567 -6.45927272 121.65449006 -6.27984047 118.28507042 C-6.08206356 114.56734856 -5.88705247 110.84949025 -5.69262695 107.1315918 C-5.63705124 106.09813126 -5.58147552 105.06467072 -5.5242157 103.99989319 C-4.86836863 91.33686932 -4.46946592 78.67557992 -4 66 C-2.68 44.22 -1.36 22.44 0 0 Z " fill="#B3BAC1" transform="translate(140,56)"/>
<path d="M0 0 C86.46 0 172.92 0 262 0 C260.87299703 10.14302671 260.87299703 10.14302671 260.16796875 14.390625 C260.01142822 15.33591064 259.8548877 16.28119629 259.69360352 17.25512695 C259.52658936 18.24343506 259.3595752 19.23174316 259.1875 20.25 C259.01081787 21.3021167 258.83413574 22.3542334 258.65209961 23.43823242 C257.23361282 31.80007051 255.67964527 40.13093844 254.06640625 48.45703125 C252.6383356 55.83651581 251.28498151 63.22984751 249.92602539 70.62231445 C247.9963984 81.09084427 245.99194772 91.54227446 244 102 C169.42 102 94.84 102 18 102 C15.69 89.13 13.38 76.26 11 63 C9.53127169 55.64996638 9.53127169 55.64996638 8.0390625 48.3046875 C6.5119489 40.66289909 5.17403152 32.98512344 3.8125 25.3125 C3.67971649 24.56962738 3.54693298 23.82675476 3.41012573 23.06137085 C3.02669452 20.91256526 2.64746545 18.76305973 2.26953125 16.61328125 C2.04885986 15.36329346 1.82818848 14.11330566 1.60083008 12.82543945 C0.93235292 8.5692962 0.4757743 4.2819687 0 0 Z " fill="#3C3F3A" transform="translate(125,354)"/>
<path d="M0 0 C86.46 0 172.92 0 262 0 C262 4.95 262 9.9 262 15 C175.21 15 88.42 15 -1 15 C-0.67 10.05 -0.34 5.1 0 0 Z " fill="#EBEAF3" transform="translate(125,339)"/>
<path d="M0 0 C44.55 0 89.1 0 135 0 C136 5 136 5 136 15 C91.12 15 46.24 15 0 15 C0 10.05 0 5.1 0 0 Z " fill="#EAE9F2" transform="translate(239,95)"/>
<path d="M0 0 C46.86 0 93.72 0 142 0 C142 4.62 142 9.24 142 14 C95.14 14 48.28 14 0 14 C0 9.38 0 4.76 0 0 Z " fill="#EBEAF3" transform="translate(238,211)"/>
</svg>
